<svg viewBox="0 0 100 100" fill="none" xmlns="http://www.w3.org/2000/svg">
<g clip-path="url(#clip0_3_13)">
<path d="M98.4728 51.667V51.7L98.4742 51.733C98.7922 58.9583 96.1762 69.4616 90.3166 78.7749C84.4988 88.0214 75.5882 95.9355 63.4025 98.3734C63.3585 98.3719 63.3196 98.3697 63.2853 98.3671C63.2846 98.3594 63.2839 98.3515 63.2832 98.3434C63.2621 98.0983 63.261 97.7875 63.261 97.3211V81.5092C63.261 78.633 62.5831 76.3005 61.8097 74.6627C67.895 73.6526 72.3464 71.4858 75.5434 68.6203C79.1334 65.4025 81.0247 61.4087 81.9388 57.492C83.6678 50.0838 81.9386 42.7553 81.494 40.8714C81.473 40.7821 81.4548 40.7051 81.44 40.6408C81.1239 39.2678 80.427 37.8358 79.7429 36.656C79.244 35.7956 78.7201 35.0156 78.2834 34.4175C78.4119 33.8049 78.5129 33.0489 78.5869 32.2661C78.7068 30.9993 78.7719 29.476 78.7283 27.9617C78.6851 26.4604 78.5334 24.9 78.1908 23.589C78.0193 22.9332 77.7864 22.2856 77.4597 21.7236C77.1356 21.166 76.6663 20.6027 75.9849 20.2612C75.4082 19.9721 74.7778 19.9116 74.2356 19.9277C73.6768 19.9443 73.0833 20.0467 72.4937 20.1928C71.3145 20.4851 69.9781 20.9962 68.655 21.5845C66.306 22.6289 63.8397 23.9887 62.071 25.0499C58.5731 23.7408 53.7894 23.5166 49.3267 23.7114C44.8297 23.9076 40.4171 24.5437 37.4717 25.1194C34.0447 22.5388 31.1441 21.1246 28.8404 20.4328C26.4796 19.7238 24.5775 19.7275 23.4102 20.2202L23.0524 20.3712L22.8129 20.6768C22.0873 21.6026 21.7228 22.869 21.5247 24.0961C21.3199 25.3645 21.2626 26.7963 21.2885 28.216C21.3331 30.6603 21.6274 33.1978 21.9278 35.0547C19.294 37.5441 18.0418 41.251 17.4845 44.8689C16.8739 48.8333 17.0517 52.9854 17.3929 56.0636C17.692 58.7619 18.8208 61.2936 20.0501 63.3232C21.2731 65.3425 22.6546 66.9617 23.6006 67.8731C28.3757 72.8065 34.5529 74.527 38.3429 74.9075C38.0892 75.5253 37.7764 76.1593 37.5569 76.568L37.49 76.6925L37.4476 76.8272C37.0488 78.093 36.7258 78.8449 36.5012 79.2666L36.0056 79.6215C34.8882 80.4216 33.0549 80.6728 31.172 80.5155C30.2679 80.44 29.4375 80.2766 28.8031 80.0907C28.4853 79.9975 28.238 79.9048 28.0659 79.8256C27.9842 79.788 27.9356 79.7608 27.9118 79.7467C27.9112 79.7461 27.9106 79.7454 27.9101 79.7448C27.8857 79.7171 27.8541 79.68 27.8142 79.6319C27.734 79.5352 27.6336 79.4098 27.5112 79.2545C27.3744 79.081 27.224 78.8877 27.0551 78.6708C26.9141 78.4897 26.7603 78.2921 26.5908 78.0756C25.8632 77.1463 24.9244 75.9694 23.8939 74.8073C22.8694 73.6519 21.7203 72.4722 20.5668 71.5555C19.4695 70.6835 18.1318 69.854 16.7559 69.7678C15.7771 69.7065 14.9595 69.7585 14.2927 69.9385C13.6238 70.119 12.9865 70.4641 12.5806 71.0745C12.1624 71.7033 12.1441 72.3803 12.2658 72.8944C12.3803 73.3784 12.6334 73.8043 12.9342 74.1059C13.0676 74.2396 13.2164 74.3431 13.2835 74.3896C13.3739 74.4521 13.4771 74.5188 13.5778 74.5829C13.6547 74.6319 13.7327 74.6809 13.8143 74.7323C13.965 74.8272 14.1281 74.9299 14.32 75.0541C14.8906 75.4232 15.5968 75.907 16.3074 76.5049C17.7627 77.7292 19.0608 79.2854 19.4096 81.1211C19.846 83.418 21.2312 85.2621 22.65 86.5946C24.0376 87.8977 25.5717 88.8206 26.637 89.3027C27.2848 89.669 28.1716 89.845 28.941 89.9539C29.834 90.0802 30.882 90.1524 31.9431 90.1904C33.4114 90.243 34.9625 90.2321 36.2675 90.1953V97.3211C36.2675 97.5957 36.2664 97.8577 36.2405 98.1126C36.2237 98.2773 36.1998 98.4001 36.1758 98.4871C36.1242 98.4781 36.0577 98.463 35.9743 98.4382C16.0778 92.5077 1.5 74.3565 1.5 51.667C1.5 23.7928 23.2522 1.5 49.9864 1.5C76.7206 1.5 98.4728 23.7928 98.4728 51.667ZM36.2544 79.6569C36.2543 79.6567 36.2566 79.6542 36.2611 79.6497C36.2567 79.6548 36.2544 79.657 36.2544 79.6569ZM36.3226 98.4988C36.3226 98.4988 36.3216 98.499 36.3195 98.4992L36.3226 98.4988Z" stroke="#00FF94" stroke-width="3"/>
</g>
<defs>
<clipPath id="clip0_3_13">
<rect width="100" height="100" fill="white"/>
</clipPath>
</defs>
</svg>
