<svg viewBox="0 0 100 100" fill="none" xmlns="http://www.w3.org/2000/svg">
<path d="M23.5864 43.7699V85H8.08293C6.20702 84.7357 2.37069 83.1764 2.03259 79.0533V27.0296M23.5864 43.7699L52.3249 60.2223L76.6258 44.1663M23.5864 43.7699V23.9477C23.1638 20.9744 21.9805 19.1508 19.7828 17.4064M23.5864 43.7699C18.7967 40.8626 8.54101 34.4138 5.83621 32.6695C3.13142 30.9251 2.17347 28.1827 2.03259 27.0296M2.03259 27.0296C1.82128 24.6147 2.53974 19.1508 7.10409 16.6135C12.8095 13.442 15.9792 15.6224 19.7828 17.4064M19.7828 17.4064C22.8257 18.8336 42.041 30.5551 51.2683 36.2375L79.7955 17.8029M79.7955 17.8029C82.4721 15.6885 89.1777 12.7284 94.5873 17.8029C95.8552 18.6618 98.3064 21.6087 97.9683 26.5246M79.7955 17.8029C77.5978 19.3886 76.7667 22.6923 76.6258 24.146V44.1663M97.9683 26.5246V79.0533C97.6161 80.573 95.8552 83.8503 91.629 84.8018H76.6258V44.1663M97.9683 26.5246C97.6302 28.4275 95.5734 31.1498 94.5873 32.273L76.6258 44.1663" stroke="#00FF94" stroke-width="3"/>
</svg>
